<svg xmlns="http://www.w3.org/2000/svg" viewBox="-2222 -23719.697 239.167 62.117"><defs><style>.a{fill:#00a5df;}.b{fill:#2581c4;}.c{fill:#004a7d;}.d{fill:#1d71b8;}.e{fill:#ed694b;}.f{fill:#e94e24;}.g{fill:#a43917;}.h{fill:#f39200;}</style></defs><g transform="translate(-2233.34 -23731.037)"><path class="a" d="M11.34,11.34,22.958,36.246,27.124,11.34Z" transform="translate(0 0)"/><path class="b" d="M23.722,11.34,15.83,28.266l7.136,15.292,7.892-16.926C27.624,19.742,23.722,11.34,23.722,11.34Z" transform="translate(3.402 0)"/><path class="c" d="M17.95,25.51l4.166,24.924L33.734,25.51Z" transform="translate(5.008 10.736)"/><path d="M145.553,18.01c-7.523.018-13.323,5.484-13.323,13.183a12.947,12.947,0,0,0,13.358,13.183,13.148,13.148,0,0,0,11.724-6.714l-5.15-2.426a7.06,7.06,0,0,1-6.574,3.937c-4.482,0-7.365-2.97-7.365-7.962,0-6.345,4.535-7.962,7.347-7.98a7,7,0,0,1,6.837,4.552h-7.242l-2.215,4.728h15.837a4.917,4.917,0,0,0,.123-1.353C158.894,23.441,153.076,18.01,145.553,18.01Zm-7.347,13.27Z" transform="translate(91.595 5.054)"/><g transform="translate(194.437 23.802)"><path d="M129.31,18.43H135.8l-5.818,12.444L135.8,43.336H129.31l-5.8-12.462Z" transform="translate(-109.449 -18.43)"/><path d="M122,18.43H115.51l5.818,12.444L115.51,43.336H122l5.8-12.462Z" transform="translate(-115.51 -18.43)"/></g><path class="d" d="M11.34,50.434H27.124l3.726-8L22.958,25.51Z" transform="translate(0 10.736)"/><path d="M111.953,18.01c-7.523.018-13.323,5.484-13.323,13.183a12.947,12.947,0,0,0,13.358,13.183,13.148,13.148,0,0,0,11.724-6.714l-5.15-2.426a7.06,7.06,0,0,1-6.574,3.937c-4.482,0-7.365-2.97-7.365-7.962,0-6.345,4.535-7.962,7.347-7.98a7,7,0,0,1,6.837,4.552h-7.242l-2.215,4.728h15.837a4.917,4.917,0,0,0,.123-1.353C125.311,23.441,119.476,18.01,111.953,18.01Zm-7.329,13.27Z" transform="translate(66.137 5.054)"/><path d="M67.07,18.01a9.33,9.33,0,0,0-7.365,3.463L53.87,18.748V50.9h5.835V41.018a9.291,9.291,0,0,0,7.453,3.357c5.923,0,12.093-4.763,12.075-13.183C79.216,23.248,73.644,18.01,67.07,18.01Zm-.685,21.162c-3.674,0-7.066-2.76-7.066-7.962,0-5.449,3.375-7.962,7.048-7.98,4.2,0,6.943,3.533,6.943,7.98C73.31,35.516,70.585,39.155,66.385,39.172Z" transform="translate(32.224 5.054)"/><path d="M82.836,18.05a7.407,7.407,0,0,0-3.744.826,5.4,5.4,0,0,0-2.18,2.549L71.06,18.7V43.624h5.818v-12.9c0-1.652-.07-4.078,1.582-5.748,1.916-1.951,5.695-1.178,6.433-.562l2.461-5.22A8.67,8.67,0,0,0,82.836,18.05Z" transform="translate(45.248 5.084)"/><path d="M107.6,31.193a13.342,13.342,0,0,1-26.682,0c-.018-7.7,5.8-13.183,13.323-13.183C101.784,18.01,107.6,23.494,107.6,31.193Zm-5.923,0c0-5.695-3.744-7.98-7.417-7.98s-7.4,2.285-7.4,7.98c0,4.8,2.865,7.98,7.417,7.962C98.848,39.155,101.678,35.991,101.678,31.193Z" transform="translate(52.719 5.054)"/><path class="e" d="M33.54,50.434H49.324L37.706,25.51Z" transform="translate(16.82 10.736)"/><path class="f" d="M29.48,38.276l7.136,15.309,7.892-16.944L37.372,21.35Z" transform="translate(13.744 7.584)"/><path class="g" d="M26.93,36.246H42.714L38.548,11.34Z" transform="translate(11.812 0)"/><path class="h" d="M35.146,11.34,31.42,19.32l7.892,16.926L50.93,11.34Z" transform="translate(15.214 0)"/><path d="M85.775,39.9l2.637,6.662L91.1,39.41l2.584,7.154L96.409,39.9h1.652L93.6,50.5l-2.6-7.066L88.376,50.5,84.14,39.9Z" transform="translate(55.159 21.268)"/><path d="M97.828,46.707a3.164,3.164,0,0,1-1.055,1.142,3.4,3.4,0,0,1-1.846.475,2.792,2.792,0,0,1-2.127-.809,3.373,3.373,0,0,1-.932-2.408,3.64,3.64,0,0,1,1-2.584,2.856,2.856,0,0,1,2.109-.844A2.717,2.717,0,0,1,97,42.506a3.772,3.772,0,0,1,.879,2.654v.176H93.364a2.075,2.075,0,0,0,.545,1.266,1.45,1.45,0,0,0,1.125.4,1.52,1.52,0,0,0,1-.316,2.322,2.322,0,0,0,.58-.685Zm-1.441-2.566a1.479,1.479,0,0,0-.457-.844,1.543,1.543,0,0,0-2.021.053,1.744,1.744,0,0,0-.457.809h2.935Z" transform="translate(61.016 22.988)"/><path d="M102.853,43.779a2.494,2.494,0,0,0-1.775-.773,1.893,1.893,0,0,0-1.389.545,2,2,0,0,0-.545,1.441,2.085,2.085,0,0,0,.562,1.512,1.9,1.9,0,0,0,1.336.51,2.481,2.481,0,0,0,1.81-.809v1.635a3.368,3.368,0,0,1-1.916.492,3.062,3.062,0,0,1-2.39-.932,3.3,3.3,0,0,1-.9-2.355,3.506,3.506,0,0,1,5.2-2.935v1.67Z" transform="translate(65.395 22.98)"/><path d="M108.154,45A3.357,3.357,0,1,1,104.8,41.68,3.267,3.267,0,0,1,108.154,45Zm-1.494.018a1.868,1.868,0,1,0-1.863,2A1.822,1.822,0,0,0,106.66,45.02Z" transform="translate(68.267 22.988)"/><path d="M111.051,39.69V44.1a2.3,2.3,0,0,0-1.863-.9,3.072,3.072,0,0,0-3.058,3.3,3.1,3.1,0,0,0,3.041,3.34,2.407,2.407,0,0,0,1.881-.844v.65h1.459V39.69h-1.459Zm-1.687,8.841a2.034,2.034,0,0,1,0-4.025,2.028,2.028,0,0,1,0,4.025Z" transform="translate(71.82 21.48)"/><path d="M116.788,46.707a3.164,3.164,0,0,1-1.055,1.142,3.4,3.4,0,0,1-1.846.475,2.792,2.792,0,0,1-2.127-.809,3.373,3.373,0,0,1-.932-2.408,3.64,3.64,0,0,1,1-2.584,2.857,2.857,0,0,1,2.109-.844,2.717,2.717,0,0,1,2.021.826,3.772,3.772,0,0,1,.879,2.654v.176h-4.517a2.075,2.075,0,0,0,.545,1.266,1.45,1.45,0,0,0,1.125.4,1.52,1.52,0,0,0,1-.316,2.322,2.322,0,0,0,.58-.685Zm-1.441-2.566a1.479,1.479,0,0,0-.457-.844,1.543,1.543,0,0,0-2.021.053,1.744,1.744,0,0,0-.457.809h2.935Z" transform="translate(75.381 22.988)"/><path d="M119.766,43.508a1.065,1.065,0,0,0-.9-.545.6.6,0,0,0-.439.158.49.49,0,0,0-.141.334.387.387,0,0,0,.211.352c.088.053.176.088.492.246l.756.369a3.057,3.057,0,0,1,.879.58,1.533,1.533,0,0,1,.457,1.16,2.182,2.182,0,0,1-.545,1.441,2.221,2.221,0,0,1-1.758.7,2.087,2.087,0,0,1-1.353-.4,2.566,2.566,0,0,1-.809-1.142l1.2-.562a1.768,1.768,0,0,0,.334.6.905.905,0,0,0,.65.246.856.856,0,0,0,.6-.211.739.739,0,0,0,.211-.492.636.636,0,0,0-.193-.475,1.914,1.914,0,0,0-.633-.387l-.545-.246a2.973,2.973,0,0,1-.861-.545,1.335,1.335,0,0,1-.439-1.055,1.977,1.977,0,0,1,.527-1.353,2.019,2.019,0,0,1,1.547-.6,1.911,1.911,0,0,1,1.16.334,2.218,2.218,0,0,1,.721.773Z" transform="translate(79.768 22.988)"/><path d="M125.888,46.707a3.164,3.164,0,0,1-1.055,1.142,3.4,3.4,0,0,1-1.846.475,2.792,2.792,0,0,1-2.127-.809,3.373,3.373,0,0,1-.932-2.408,3.64,3.64,0,0,1,1-2.584,2.856,2.856,0,0,1,2.109-.844,2.717,2.717,0,0,1,2.021.826,3.772,3.772,0,0,1,.879,2.654v.176h-4.517a2.074,2.074,0,0,0,.545,1.266,1.45,1.45,0,0,0,1.125.4,1.52,1.52,0,0,0,1-.316,2.322,2.322,0,0,0,.58-.685Zm-1.441-2.566a1.479,1.479,0,0,0-.457-.844,1.543,1.543,0,0,0-2.021.053,1.744,1.744,0,0,0-.457.809h2.935Z" transform="translate(82.276 22.988)"/><path d="M124.418,41.856h1.459v.562a2.512,2.512,0,0,1,.615-.527,1.733,1.733,0,0,1,.9-.211,2.064,2.064,0,0,1,1.143.3l-.6,1.336a1.342,1.342,0,0,0-.756-.229,1.148,1.148,0,0,0-.914.352,2.029,2.029,0,0,0-.4,1.441v3.252H124.4V41.856Z" transform="translate(85.663 22.988)"/><path d="M128.319,39.76a.94.94,0,0,1,0,1.881.94.94,0,1,1,0-1.881Zm.738,3.55V49.6H127.6V43.31Z" transform="translate(87.913 21.533)"/><path d="M136.074,45a3.357,3.357,0,1,1-3.357-3.322A3.267,3.267,0,0,1,136.074,45Zm-1.494.018a1.868,1.868,0,1,0-1.863,2A1.822,1.822,0,0,0,134.58,45.02Z" transform="translate(89.421 22.988)"/><path d="M135.676,41.78v3.6a1.9,1.9,0,0,0,.264,1.142,1.223,1.223,0,0,0,.949.439,1.146,1.146,0,0,0,.949-.439,1.868,1.868,0,0,0,.264-1.142v-3.6h1.459v3.638a2.621,2.621,0,0,1-.668,2.056,2.888,2.888,0,0,1-2.039.773,2.775,2.775,0,0,1-1.986-.773,2.621,2.621,0,0,1-.668-2.056V41.78Z" transform="translate(93.088 23.064)"/><path d="M141.366,43.508a1.065,1.065,0,0,0-.9-.545.6.6,0,0,0-.439.158.49.49,0,0,0-.141.334.387.387,0,0,0,.211.352c.088.053.176.088.492.246l.756.369a3.057,3.057,0,0,1,.879.58,1.533,1.533,0,0,1,.457,1.16,2.182,2.182,0,0,1-.545,1.441,2.221,2.221,0,0,1-1.758.7,2.087,2.087,0,0,1-1.353-.4,2.566,2.566,0,0,1-.809-1.142l1.2-.562a1.768,1.768,0,0,0,.334.6.905.905,0,0,0,.65.246.856.856,0,0,0,.6-.211.739.739,0,0,0,.211-.492.636.636,0,0,0-.193-.475,1.914,1.914,0,0,0-.633-.387l-.545-.246a2.974,2.974,0,0,1-.861-.545,1.335,1.335,0,0,1-.439-1.055,1.977,1.977,0,0,1,.527-1.353,2.019,2.019,0,0,1,1.547-.6,1.911,1.911,0,0,1,1.16.334,2.217,2.217,0,0,1,.721.773Z" transform="translate(96.134 22.988)"/><rect width="1.459" height="9.966" transform="translate(240.541 61.17)"/><path d="M144.292,50.393h1.635l4.447-8.613h-1.652l-1.81,3.674-1.793-3.674H143.36l2.672,5.291Z" transform="translate(100.028 23.064)"/></g></svg>